<svg id="Layer_1" data-name="Layer 1" xmlns="http://www.w3.org/2000/svg" viewBox="0 0 108.08 150.97"><defs><style>.cls-1{fill:#6bb344;}</style></defs><title>logo-security</title><path class="cls-1" d="M108.08,13,54,0,0,13V54.6H28.67a23.94,23.94,0,0,0,0,6H0V80.14C0,125,54,151,54,151s54-26,54-70.83V60.62H79.4a22.75,22.75,0,0,0,0-6h28.68ZM54,77.15A19.54,19.54,0,1,1,73.58,57.61,19.54,19.54,0,0,1,54,77.15Z"/><path class="cls-1" d="M54,48.34a5.06,5.06,0,0,0-2.32,9.56v1.31l1.49,1.49v1l1,1v1l-.88.88.94,1.55v1l-1,1.19,1.4,1.4,1.55-1.55V58A5.06,5.06,0,0,0,54,48.34Zm0,5.26a1.88,1.88,0,1,1,1.88-1.88A1.88,1.88,0,0,1,54,53.6Z"/></svg>